{"glyphs":{":":{"x_min":0,"x_max":384,"ha":384,"o":""},"$":{"x_min":0,"x_max":650,"ha":650,"o":"m 405 -90 l 260 -90 q 241 -90 232 -82 q 224 -73 224 -54 l 224 0 l 87 0 q 68 0 60 8 q 51 17 51 36 l 51 153 q 51 172 60 180 q 68 189 87 189 l 356 189 q 369 189 376 198 q 382 206 382 218 q 382 235 376 243 q 369 251 356 252 l 206 273 q 136 283 94 319 q 51 355 51 439 l 51 544 q 51 622 97 666 q 143 711 224 718 l 224 774 q 224 793 232 802 q 241 810 260 810 l 405 810 q 424 810 432 802 q 441 793 441 774 l 441 720 l 538 720 q 557 720 566 712 q 574 703 574 684 l 574 565 q 574 546 566 538 q 557 529 538 529 l 305 529 q 292 529 285 520 q 278 512 278 499 q 278 486 285 477 q 292 468 305 467 l 454 447 q 524 437 567 401 q 610 365 610 281 l 610 176 q 610 100 565 55 q 520 10 441 2 l 441 -54 q 441 -73 432 -82 q 424 -90 405 -90 z m 328 0 l 338 0 l 338 90 l 390 90 q 441 90 471 118 q 501 147 501 191 l 501 249 q 501 301 482 321 q 462 341 432 347 l 221 390 q 198 394 184 408 q 170 422 170 457 l 170 539 q 170 574 195 597 q 220 620 262 620 l 484 620 l 484 630 l 338 630 l 338 720 l 328 720 l 328 630 l 262 630 q 216 630 188 604 q 160 579 160 539 l 160 457 q 160 416 176 400 q 193 385 219 380 l 430 337 q 458 331 474 314 q 491 296 491 249 l 491 191 q 491 151 464 126 q 436 100 390 100 l 141 100 l 141 90 l 328 90 z"},"?":{"x_min":0,"x_max":656,"ha":656,"o":"m 456 273 l 185 236 q 166 234 158 241 q 149 248 146 267 l 125 399 q 122 418 130 428 q 139 438 158 440 l 357 468 q 372 470 378 477 q 384 484 384 499 q 384 513 377 520 q 370 527 357 527 l 81 527 q 62 527 54 536 q 45 544 45 563 l 45 684 q 45 703 54 712 q 62 720 81 720 l 404 720 q 501 720 556 674 q 611 629 611 544 l 611 439 q 611 355 569 319 q 527 283 456 273 z m 225 340 l 441 370 q 464 373 481 383 q 498 393 498 424 l 498 537 q 498 591 468 610 q 438 628 404 628 l 135 628 l 135 618 l 404 618 q 435 618 462 602 q 488 586 488 537 l 488 424 q 488 398 473 390 q 458 383 439 380 l 223 351 z m 344 0 l 161 0 q 142 0 134 8 q 125 17 125 36 l 125 167 q 125 186 134 194 q 142 203 161 203 l 344 203 q 363 203 372 194 q 380 186 380 167 l 380 36 q 380 17 372 8 q 363 0 344 0 z m 248 80 l 258 80 l 258 123 l 248 123 z"},"<":{"x_min":0,"x_max":714,"ha":714,"o":"m 588 59 l 207 168 q 145 186 112 218 q 80 249 80 323 l 80 395 q 80 469 112 500 q 145 532 207 550 l 588 659 q 607 663 616 655 q 624 647 624 628 l 624 496 q 624 477 616 468 q 607 458 588 455 l 301 378 q 291 376 288 372 q 284 368 284 359 q 284 350 288 346 q 291 342 301 340 l 588 263 q 607 260 616 250 q 624 241 624 222 l 624 90 q 624 71 616 63 q 607 55 588 59 z m 534 176 l 236 262 q 215 268 200 282 q 186 295 186 323 l 186 395 q 186 423 200 435 q 215 447 236 453 l 534 539 l 534 549 l 234 463 q 209 456 192 442 q 176 428 176 395 l 176 323 q 176 290 192 274 q 209 259 234 252 l 534 166 z"},"'":{"x_min":0,"x_max":356,"ha":356,"o":"m 251 345 l 107 345 q 81 345 74 352 q 66 360 65 386 l 57 679 q 56 705 64 712 q 71 720 97 720 l 262 720 q 287 720 294 712 q 302 705 301 679 l 293 386 q 292 360 284 352 q 277 345 251 345 z m 174 630 l 174 435 l 184 435 l 184 630 z"},"=":{"x_min":0,"x_max":734,"ha":734,"o":"m 106 417 q 87 417 78 426 q 70 434 70 453 l 70 567 q 70 586 78 594 q 87 603 106 603 l 628 603 q 647 603 656 594 q 664 586 664 567 l 664 453 q 664 434 656 426 q 647 417 628 417 z m 160 505 l 574 505 l 574 515 l 160 515 z m 106 117 q 87 117 78 126 q 70 134 70 153 l 70 267 q 70 286 78 294 q 87 303 106 303 l 628 303 q 647 303 656 294 q 664 286 664 267 l 664 153 q 664 134 656 126 q 647 117 628 117 z m 160 205 l 574 205 l 574 215 l 160 215 z"},"a":{"x_min":0,"x_max":730,"ha":730,"o":""},"L":{"x_min":0,"x_max":695,"ha":695,"o":"m 614 0 l 105 0 q 86 0 78 8 q 69 17 69 36 l 69 684 q 69 703 78 712 q 86 720 105 720 l 260 720 q 279 720 288 712 q 296 703 296 684 l 296 189 l 433 189 l 433 351 q 433 370 442 378 q 450 387 469 387 l 614 387 q 633 387 642 378 q 650 370 650 351 l 650 36 q 650 17 642 8 q 633 0 614 0 z m 178 90 l 546 90 l 546 297 l 536 297 l 536 100 l 188 100 l 188 630 l 178 630 z"},"3":{"x_min":0,"x_max":637,"ha":637,"o":"m 85 189 l 336 189 q 360 189 367 198 q 374 207 374 219 l 374 246 q 374 258 367 266 q 360 275 336 275 l 166 275 q 147 275 138 284 q 130 292 130 311 l 130 418 q 130 437 138 446 q 147 454 166 454 l 271 454 q 295 454 302 463 q 309 472 309 484 l 309 499 q 309 511 302 520 q 295 529 271 529 l 85 529 q 66 529 58 538 q 49 546 49 565 l 49 684 q 49 703 58 712 q 66 720 85 720 l 364 720 q 447 720 488 682 q 528 643 528 577 l 528 519 q 528 481 515 453 q 502 425 469 411 q 540 403 568 368 q 595 332 595 266 l 595 166 q 595 89 546 44 q 497 0 401 0 l 85 0 q 66 0 58 8 q 49 17 49 36 l 49 153 q 49 172 58 180 q 66 189 85 189 z m 220 359 l 372 359 q 429 359 454 334 q 480 309 480 259 l 480 190 q 480 149 457 124 q 434 100 359 100 l 139 100 l 139 90 l 359 90 q 401 90 427 98 q 453 105 466 118 q 480 131 485 150 q 490 168 490 190 l 490 259 q 490 311 463 339 q 436 367 374 367 l 358 367 q 403 377 414 404 q 424 432 424 460 l 424 524 q 424 546 419 565 q 414 584 400 598 q 386 613 360 622 q 334 630 293 630 l 139 630 l 139 620 l 293 620 q 366 620 390 594 q 414 567 414 528 l 414 460 q 414 442 411 426 q 408 409 396 396 q 385 384 363 376 q 341 369 303 369 l 220 369 z"},";":{"x_min":0,"x_max":384,"ha":384,"o":""},"J":{"x_min":0,"x_max":688,"ha":688,"o":"m 624 189 q 624 143 611 106 q 598 68 566 42 q 533 15 476 0 q 419 -15 331 -15 q 244 -15 188 0 q 131 15 98 42 q 66 68 54 106 q 41 143 41 189 l 41 351 q 41 370 50 378 q 58 387 77 387 l 222 387 q 241 387 250 378 q 258 370 258 351 l 258 229 q 258 209 270 196 q 283 182 329 182 q 372 182 384 196 q 395 209 395 229 l 395 684 q 395 703 404 712 q 412 720 431 720 l 588 720 q 607 720 616 712 q 624 703 624 684 z m 504 630 l 504 213 q 504 157 468 122 q 432 88 333 88 q 230 88 192 122 q 155 156 155 213 l 155 292 l 145 292 l 145 213 q 145 183 154 158 q 162 133 183 116 q 204 98 240 88 q 277 78 333 78 q 439 78 476 116 q 514 154 514 213 l 514 630 z"},"V":{"x_min":0,"x_max":730,"ha":730,"o":"m 495 0 l 235 0 q 216 0 204 7 q 191 14 184 33 l 86 278 q 77 300 71 316 q 65 333 61 348 q 57 363 56 380 q 54 396 54 420 l 54 684 q 54 703 62 712 q 71 720 90 720 l 249 720 q 268 720 278 712 q 288 703 288 684 l 288 408 q 288 398 290 388 q 292 378 296 367 l 343 227 q 346 217 350 214 q 354 210 362 210 l 373 210 q 381 210 385 214 q 389 217 392 227 l 439 368 q 443 379 445 389 q 447 399 447 409 l 447 684 q 447 703 456 712 q 464 720 483 720 l 640 720 q 659 720 668 712 q 676 703 676 684 l 676 420 q 676 396 674 380 q 673 363 669 348 q 665 333 659 316 q 653 300 644 278 l 546 33 q 539 14 526 7 q 514 0 495 0 z m 167 630 l 167 414 q 167 386 170 362 q 174 339 183 317 l 249 157 q 261 128 276 109 q 291 90 322 90 l 410 90 q 441 90 456 109 q 471 128 483 157 l 549 317 q 558 339 562 362 q 565 386 565 414 l 565 630 l 555 630 l 555 414 q 555 388 551 364 q 547 341 539 321 l 473 161 q 463 135 450 118 q 438 100 410 100 l 322 100 q 294 100 282 118 q 269 135 259 161 l 193 321 q 185 341 181 364 q 177 388 177 414 l 177 630 z"},"\"":{"x_min":0,"x_max":646,"ha":646,"o":"m 241 345 l 97 345 q 71 345 64 352 q 56 360 55 386 l 47 679 q 46 705 54 712 q 61 720 87 720 l 252 720 q 277 720 284 712 q 292 705 291 679 l 283 386 q 282 360 274 352 q 267 345 241 345 z m 551 345 l 407 345 q 381 345 374 352 q 366 360 365 386 l 357 679 q 356 705 364 712 q 371 720 397 720 l 562 720 q 587 720 594 712 q 602 705 601 679 l 593 386 q 592 360 584 352 q 577 345 551 345 z m 474 630 l 474 435 l 484 435 l 484 630 z m 164 630 l 164 435 l 174 435 l 174 630 z"},"7":{"x_min":0,"x_max":627,"ha":627,"o":"m 539 720 q 558 720 566 712 q 575 703 575 684 l 575 431 q 575 384 566 351 q 556 318 537 296 q 518 274 488 260 q 459 245 419 233 l 345 211 l 345 36 q 345 17 336 8 q 328 0 309 0 l 147 0 q 128 0 120 8 q 111 17 111 36 l 111 217 q 111 264 120 297 q 130 330 149 352 q 168 374 198 388 q 227 403 267 415 l 348 437 l 348 527 l 74 527 q 55 527 46 536 q 38 544 38 563 l 38 684 q 38 703 46 712 q 55 720 74 720 z m 223 90 l 233 90 l 233 240 q 233 259 241 270 q 249 281 262 286 l 432 354 q 450 361 458 374 q 467 387 467 410 l 467 630 l 128 630 l 128 620 l 457 620 l 457 410 q 457 391 450 380 q 443 370 428 364 l 258 296 q 242 289 232 276 q 223 263 223 240 z"},"S":{"x_min":0,"x_max":650,"ha":650,"o":"m 403 0 l 87 0 q 68 0 60 8 q 51 17 51 36 l 51 153 q 51 172 60 180 q 68 189 87 189 l 356 189 q 369 189 376 198 q 382 206 382 218 q 382 235 376 243 q 369 251 356 252 l 206 273 q 136 283 94 319 q 51 355 51 439 l 51 544 q 51 629 106 674 q 161 720 258 720 l 538 720 q 557 720 566 712 q 574 703 574 684 l 574 565 q 574 546 566 538 q 557 529 538 529 l 305 529 q 292 529 285 520 q 278 512 278 499 q 278 486 285 477 q 292 468 305 467 l 454 447 q 524 437 567 401 q 610 365 610 281 l 610 176 q 610 91 554 46 q 499 0 403 0 z m 484 630 l 262 630 q 216 630 188 604 q 160 579 160 539 l 160 457 q 160 416 176 400 q 193 385 219 380 l 430 337 q 458 331 474 314 q 491 296 491 249 l 491 191 q 491 151 464 126 q 436 100 390 100 l 141 100 l 141 90 l 390 90 q 441 90 471 118 q 501 147 501 191 l 501 249 q 501 301 482 321 q 462 341 432 347 l 221 390 q 198 394 184 408 q 170 422 170 457 l 170 539 q 170 574 195 597 q 220 620 262 620 l 484 620 z"},"}":{"x_min":0,"x_max":455,"ha":455,"o":"m 143 161 l 143 276 q 143 306 152 320 q 162 334 188 338 l 221 344 q 228 345 231 348 q 234 351 234 358 q 234 365 231 368 q 228 371 221 372 l 188 378 q 162 382 152 396 q 143 410 143 440 l 143 557 q 143 583 134 595 q 126 607 102 607 l 81 607 q 62 607 54 616 q 45 624 45 643 l 45 764 q 45 783 54 792 q 62 800 81 800 l 125 800 q 266 800 318 743 q 371 686 371 595 l 371 462 q 403 452 419 432 q 435 412 435 376 l 435 341 q 435 305 419 284 q 403 264 371 254 l 371 124 q 371 34 318 -23 q 266 -80 125 -80 l 81 -80 q 62 -80 54 -72 q 45 -63 45 -44 l 45 75 q 45 94 54 102 q 62 111 81 111 l 102 111 q 126 111 134 123 q 143 135 143 161 z m 262 124 l 262 275 q 292 279 309 296 q 326 313 326 344 l 326 372 q 326 404 309 420 q 292 437 262 441 l 262 595 q 262 658 232 683 q 201 708 135 708 l 135 698 q 195 698 224 676 q 252 654 252 595 l 252 433 q 287 429 302 414 q 316 400 316 372 l 316 344 q 316 316 301 302 q 286 287 252 283 l 252 124 q 252 72 223 46 q 194 21 135 21 l 135 11 q 200 11 231 39 q 262 67 262 124 z"},"Z":{"x_min":0,"x_max":660,"ha":660,"o":"m 578 0 l 82 0 q 63 0 54 8 q 46 17 46 36 l 46 170 q 46 189 52 204 q 58 218 71 232 l 314 527 l 100 527 q 81 527 72 536 q 64 544 64 563 l 64 684 q 64 703 72 712 q 81 720 100 720 l 560 720 q 579 720 588 712 q 596 703 596 684 l 596 535 q 596 515 590 500 q 584 486 571 472 l 339 191 l 578 191 q 597 191 606 182 q 614 174 614 155 l 614 36 q 614 17 606 8 q 597 0 578 0 z m 473 544 q 480 553 485 562 q 490 570 490 581 l 490 597 q 490 614 482 622 q 475 630 459 630 l 154 630 l 154 620 l 459 620 q 467 620 474 616 q 480 611 480 597 l 480 583 q 480 573 476 567 q 473 561 466 552 l 173 176 q 166 167 161 158 q 156 150 156 139 l 156 123 q 156 106 164 98 q 171 90 187 90 l 524 90 l 524 100 l 187 100 q 179 100 172 104 q 166 109 166 123 l 166 137 q 166 147 170 153 q 173 159 180 168 z"},"x":{"x_min":0,"x_max":737,"ha":737,"o":""},")":{"x_min":0,"x_max":429,"ha":429,"o":"m 135 -80 l 81 -80 q 62 -80 54 -72 q 45 -63 45 -44 l 45 75 q 45 94 54 102 q 62 111 81 111 l 112 111 q 136 111 144 123 q 153 135 153 161 l 153 557 q 153 583 144 595 q 136 607 112 607 l 81 607 q 62 607 54 616 q 45 624 45 643 l 45 764 q 45 783 54 792 q 62 800 81 800 l 135 800 q 276 800 328 743 q 381 686 381 595 l 381 124 q 381 34 328 -23 q 276 -80 135 -80 z m 272 124 l 272 595 q 272 661 236 684 q 201 708 135 708 l 135 698 q 195 698 228 677 q 262 656 262 595 l 262 124 q 262 63 228 42 q 194 21 135 21 l 135 11 q 200 11 236 34 q 272 58 272 124 z"},"&":{"x_min":0,"x_max":766,"ha":766,"o":"m 296 187 l 438 187 q 460 187 468 197 q 476 207 476 227 l 476 365 q 476 384 484 392 q 493 401 512 401 l 706 401 q 725 401 734 392 q 742 384 742 365 l 742 257 q 742 238 734 230 q 725 221 706 221 l 683 221 l 683 176 q 683 96 637 48 q 591 0 504 0 l 226 0 q 134 0 86 48 q 37 96 37 176 l 37 256 q 37 326 73 366 q 109 406 163 411 q 130 425 117 453 q 104 481 104 519 l 104 567 q 104 633 150 676 q 195 720 296 720 l 507 720 q 526 720 534 712 q 543 703 543 684 l 543 569 q 543 550 534 542 q 526 533 507 533 l 361 533 q 337 533 330 524 q 323 515 323 503 l 323 482 q 323 470 330 461 q 337 452 361 452 l 376 452 q 395 452 404 444 q 412 435 412 416 l 412 313 q 412 294 404 286 q 395 277 376 277 l 296 277 q 272 277 265 268 q 258 260 258 248 l 258 217 q 258 205 265 196 q 272 187 296 187 z m 250 90 l 491 90 q 535 90 560 112 q 584 135 584 181 l 584 306 l 649 306 l 649 316 l 574 316 l 574 181 q 574 141 552 120 q 531 100 491 100 l 256 100 q 197 100 170 124 q 143 147 143 198 l 143 259 q 143 304 170 334 q 198 363 255 363 l 322 363 l 322 373 l 312 373 q 265 373 242 396 q 220 420 220 469 l 220 523 q 220 574 246 597 q 272 620 328 620 l 453 620 l 453 630 l 328 630 q 268 630 239 605 q 210 580 210 525 l 210 469 q 210 430 223 406 q 236 382 262 372 l 255 372 q 193 372 163 340 q 133 308 133 259 l 133 198 q 133 143 162 116 q 191 90 250 90 z"},"_":{"x_min":0,"x_max":734,"ha":734,"o":"m 106 -103 q 87 -103 78 -94 q 70 -86 70 -67 l 70 67 q 70 86 78 94 q 87 103 106 103 l 628 103 q 647 103 656 94 q 664 86 664 67 l 664 -67 q 664 -86 656 -94 q 647 -103 628 -103 z m 574 5 l 160 5 l 160 -5 l 574 -5 z"},"v":{"x_min":0,"x_max":730,"ha":730,"o":""},"O":{"x_min":0,"x_max":737,"ha":737,"o":"m 679 189 q 679 143 666 106 q 652 68 618 42 q 583 15 522 0 q 462 -15 369 -15 q 276 -15 215 0 q 154 15 120 42 q 85 68 72 106 q 58 143 58 189 l 58 530 q 58 576 72 614 q 85 651 120 678 q 154 705 215 720 q 276 735 369 735 q 462 735 522 720 q 583 705 618 678 q 652 651 666 614 q 679 576 679 530 z m 570 212 l 570 507 q 570 567 527 604 q 484 642 367 642 q 250 642 208 604 q 166 567 166 507 l 166 212 q 166 152 208 114 q 250 77 367 77 q 484 77 527 114 q 570 152 570 212 z m 176 212 l 176 507 q 176 563 216 598 q 256 632 367 632 q 478 632 519 598 q 560 563 560 507 l 560 212 q 560 156 519 122 q 478 87 367 87 q 256 87 216 122 q 176 156 176 212 z m 285 225 q 285 205 300 192 q 315 178 369 178 q 423 178 438 192 q 453 205 453 225 l 453 494 q 453 513 438 526 q 423 540 369 540 q 315 540 300 526 q 285 513 285 494 z"},"(":{"x_min":0,"x_max":429,"ha":429,"o":"m 348 -80 l 294 -80 q 153 -80 100 -23 q 48 34 48 124 l 48 595 q 48 686 100 743 q 153 800 294 800 l 348 800 q 367 800 376 792 q 384 783 384 764 l 384 643 q 384 624 376 616 q 367 607 348 607 l 317 607 q 293 607 284 595 q 276 583 276 557 l 276 161 q 276 135 284 123 q 293 111 317 111 l 348 111 q 367 111 376 102 q 384 94 384 75 l 384 -44 q 384 -63 376 -72 q 367 -80 348 -80 z m 294 21 q 235 21 201 42 q 167 63 167 124 l 167 595 q 167 656 200 677 q 234 698 294 698 l 294 708 q 228 708 192 684 q 157 661 157 595 l 157 124 q 157 58 193 34 q 229 11 294 11 z"},"C":{"x_min":0,"x_max":628,"ha":628,"o":"m 548 0 l 304 0 q 179 0 118 50 q 58 100 58 204 l 58 515 q 58 619 118 670 q 179 720 304 720 l 548 720 q 567 720 576 712 q 584 703 584 684 l 584 563 q 584 544 576 536 q 567 527 548 527 l 347 527 q 316 527 301 514 q 286 502 286 477 l 286 239 q 286 214 301 202 q 316 191 347 191 l 548 191 q 567 191 576 182 q 584 174 584 155 l 584 36 q 584 17 576 8 q 567 0 548 0 z m 493 100 l 326 100 q 236 100 206 127 q 176 154 176 219 l 176 499 q 176 565 207 592 q 238 620 326 620 l 493 620 l 493 630 l 326 630 q 230 630 198 600 q 166 570 166 499 l 166 219 q 166 150 198 120 q 229 90 326 90 l 493 90 z"},"W":{"x_min":0,"x_max":831,"ha":831,"o":"m 439 345 l 394 345 q 378 345 368 336 q 358 326 345 298 l 263 114 q 259 104 251 102 q 243 100 236 100 l 231 100 q 223 100 216 106 q 209 113 208 121 l 183 235 q 179 254 178 284 q 178 314 178 336 l 178 630 l 168 630 l 168 335 q 168 313 168 283 q 169 253 173 234 l 198 121 q 202 105 210 98 q 219 90 231 90 l 238 90 q 247 90 257 94 q 267 97 271 107 l 353 293 q 365 320 374 328 q 382 335 394 335 l 439 335 q 451 335 460 328 q 468 320 480 293 l 562 107 q 566 97 576 94 q 586 90 595 90 l 602 90 q 614 90 622 98 q 631 105 635 121 l 660 234 q 664 253 664 283 q 665 313 665 335 l 665 630 l 655 630 l 655 336 q 655 314 654 284 q 654 254 650 235 l 625 121 q 624 113 617 106 q 610 100 602 100 l 597 100 q 590 100 582 102 q 574 104 570 114 l 488 298 q 475 326 465 336 q 455 345 439 345 z m 586 720 l 735 720 q 754 720 762 712 q 771 703 771 684 l 771 296 q 771 264 768 236 q 766 209 753 172 l 703 36 q 698 21 688 10 q 679 0 663 0 l 530 0 q 514 0 501 7 q 488 14 484 30 l 438 193 q 435 203 430 206 q 426 210 420 210 l 411 210 q 405 210 400 206 q 396 203 393 193 l 346 30 q 342 15 331 8 q 320 0 304 0 l 172 0 q 156 0 144 10 q 133 20 128 36 l 78 174 q 65 211 62 238 q 60 266 60 298 l 60 684 q 60 703 68 712 q 77 720 96 720 l 250 720 q 269 720 278 712 q 286 703 286 684 l 286 316 l 344 442 q 352 459 365 466 q 378 473 397 473 l 439 473 q 458 473 471 466 q 484 459 492 442 l 550 316 l 550 684 q 550 703 558 712 q 567 720 586 720 z"},"A":{"x_min":0,"x_max":730,"ha":730,"o":"m 170 303 q 170 330 174 353 q 179 376 186 396 l 250 560 q 260 585 272 602 q 284 620 314 620 l 412 620 q 440 620 452 602 q 464 585 475 559 l 544 396 q 551 376 556 353 q 560 330 560 303 l 560 272 l 170 272 z m 330 510 l 283 358 l 440 358 l 393 510 q 389 519 384 523 q 380 527 374 527 l 349 527 q 343 527 338 523 q 334 519 330 510 z m 560 90 l 570 90 l 570 303 q 570 331 566 354 q 561 378 553 400 l 484 563 q 472 592 458 611 q 445 630 412 630 l 314 630 q 280 630 266 611 q 252 592 241 564 l 177 400 q 169 378 164 354 q 160 331 160 303 l 160 90 l 170 90 l 170 262 l 560 262 z m 273 36 q 273 17 264 8 q 256 0 237 0 l 90 0 q 71 0 62 8 q 54 17 54 36 l 54 300 q 54 330 64 369 q 73 408 93 460 l 180 687 q 186 704 198 712 q 211 720 231 720 l 500 720 q 519 720 532 712 q 544 704 550 687 l 637 460 q 657 408 666 369 q 676 330 676 300 l 676 36 q 676 17 668 8 q 659 0 640 0 l 489 0 q 469 0 460 8 q 450 17 450 36 l 450 176 l 273 176 z"},"f":{"x_min":0,"x_max":618,"ha":618,"o":""},"Q":{"x_min":0,"x_max":737,"ha":737,"o":"m 445 -90 l 291 -90 q 272 -90 264 -82 q 255 -73 255 -54 l 255 1 q 139 18 98 70 q 58 123 58 198 l 58 530 q 58 576 72 614 q 85 651 120 678 q 154 705 215 720 q 276 735 369 735 q 462 735 522 720 q 583 705 618 678 q 652 651 666 614 q 679 576 679 530 l 679 198 q 679 160 670 128 q 661 95 639 70 q 617 45 578 27 q 540 9 481 1 l 481 -54 q 481 -73 472 -82 q 464 -90 445 -90 z m 362 0 l 372 0 l 372 77 q 486 78 528 115 q 570 152 570 212 l 570 507 q 570 567 527 604 q 484 642 367 642 q 250 642 208 604 q 166 567 166 507 l 166 212 q 166 152 207 115 q 248 78 362 77 z m 176 212 l 176 507 q 176 563 216 598 q 256 632 367 632 q 478 632 519 598 q 560 563 560 507 l 560 212 q 560 156 519 122 q 478 87 367 87 q 256 87 216 122 q 176 156 176 212 z m 285 220 q 285 200 300 186 q 315 173 369 173 q 423 173 438 186 q 453 200 453 220 l 453 493 q 453 512 438 526 q 423 539 369 539 q 315 539 300 526 q 285 512 285 493 z"},"w":{"x_min":0,"x_max":831,"ha":831,"o":""},"-":{"x_min":0,"x_max":420,"ha":420,"o":"m 76 257 q 57 257 48 266 q 40 274 40 293 l 40 427 q 40 446 48 454 q 57 463 76 463 l 344 463 q 363 463 372 454 q 380 446 380 427 l 380 293 q 380 274 372 266 q 363 257 344 257 z m 290 365 l 130 365 l 130 355 l 290 355 z"},"E":{"x_min":0,"x_max":654,"ha":654,"o":"m 569 0 l 105 0 q 86 0 78 8 q 69 17 69 36 l 69 684 q 69 703 78 712 q 86 720 105 720 l 569 720 q 588 720 596 712 q 605 703 605 684 l 605 567 q 605 548 596 540 q 588 531 569 531 l 293 531 l 293 454 l 488 454 q 507 454 516 446 q 524 437 524 418 l 524 311 q 524 292 516 284 q 507 275 488 275 l 293 275 l 293 189 l 569 189 q 588 189 596 180 q 605 172 605 153 l 605 36 q 605 17 596 8 q 588 0 569 0 z m 515 100 l 188 100 l 188 359 l 434 359 l 434 369 l 188 369 l 188 620 l 515 620 l 515 630 l 178 630 l 178 90 l 515 90 z"},"s":{"x_min":0,"x_max":650,"ha":650,"o":""},">":{"x_min":0,"x_max":714,"ha":714,"o":"m 507 168 l 126 59 q 107 55 98 63 q 90 71 90 90 l 90 222 q 90 241 98 250 q 107 260 126 263 l 413 340 q 423 342 426 346 q 430 350 430 359 q 430 368 426 372 q 423 376 413 378 l 126 455 q 107 458 98 468 q 90 477 90 496 l 90 628 q 90 647 98 655 q 107 663 126 659 l 507 550 q 569 532 602 500 q 634 469 634 395 l 634 323 q 634 249 602 218 q 569 186 507 168 z m 480 252 q 505 259 522 274 q 538 290 538 323 l 538 395 q 538 428 522 442 q 505 456 480 463 l 180 549 l 180 539 l 478 453 q 499 447 514 435 q 528 423 528 395 l 528 323 q 528 295 514 282 q 499 268 478 262 l 180 176 l 180 166 z"},"l":{"x_min":0,"x_max":695,"ha":695,"o":""},"8":{"x_min":0,"x_max":711,"ha":711,"o":"m 664 256 l 664 159 q 664 120 650 88 q 635 56 600 33 q 565 10 506 -2 q 446 -15 356 -15 q 266 -15 206 -2 q 146 10 111 33 q 76 56 62 88 q 47 120 47 159 l 47 256 q 47 326 78 364 q 108 402 153 411 q 120 425 107 453 q 94 481 94 519 l 94 577 q 94 614 107 643 q 120 672 150 692 q 180 713 231 724 q 282 735 357 735 q 432 735 482 724 q 533 713 562 692 q 592 672 604 643 q 617 614 617 577 l 617 519 q 617 481 604 453 q 591 425 558 411 q 603 402 634 364 q 664 326 664 256 z m 356 67 q 416 67 456 75 q 495 83 518 97 q 540 111 549 130 q 558 150 558 173 l 558 266 q 558 304 531 332 q 504 359 432 369 q 480 377 501 398 q 522 420 522 455 l 522 550 q 522 602 482 627 q 443 652 356 652 q 269 652 229 628 q 189 604 189 558 l 189 455 q 189 420 210 398 q 232 377 280 369 q 208 359 180 331 q 153 303 153 265 l 153 173 q 153 150 162 130 q 171 111 194 97 q 217 83 256 75 q 296 67 356 67 z m 199 558 q 199 601 238 622 q 278 642 356 642 q 434 642 473 620 q 512 599 512 550 l 512 455 q 512 412 474 393 q 435 374 356 374 q 277 374 238 393 q 199 412 199 455 z m 293 480 q 293 464 304 454 q 314 443 356 443 q 399 443 408 454 q 418 464 418 480 l 418 524 q 418 539 408 550 q 399 560 356 560 q 314 560 304 550 q 293 539 293 524 z m 163 265 q 163 308 206 336 q 249 364 356 364 q 463 364 506 336 q 548 309 548 266 l 548 173 q 548 130 506 104 q 464 77 356 77 q 248 77 206 104 q 163 130 163 173 z m 268 197 q 268 181 285 170 q 302 160 356 160 q 410 160 426 170 q 443 181 443 197 l 443 250 q 443 265 426 276 q 410 286 356 286 q 302 286 285 276 q 268 265 268 250 z"},"\\":{"x_min":0,"x_max":347,"ha":347,"o":"m 224 774 l 344 -54 q 346 -73 336 -82 q 327 -90 308 -90 l 163 -90 q 144 -90 136 -82 q 129 -73 127 -54 l 7 774 q 5 793 14 802 q 24 810 43 810 l 188 810 q 207 810 214 802 q 222 793 224 774 z m 129 720 l 119 720 l 223 0 l 233 0 z"},"e":{"x_min":0,"x_max":654,"ha":654,"o":""},"b":{"x_min":0,"x_max":725,"ha":725,"o":""},"%":{"x_min":0,"x_max":1031,"ha":1031,"o":"m 398 416 q 398 390 390 368 q 383 345 363 330 q 343 314 308 306 q 274 297 221 297 q 114 297 78 330 q 42 363 42 416 l 42 606 q 42 659 78 692 q 114 725 221 725 q 274 725 308 716 q 343 708 363 692 q 383 677 390 654 q 398 632 398 606 z m 352 36 l 512 684 q 516 702 525 711 q 534 720 553 720 l 658 720 q 677 720 685 711 q 693 702 689 684 l 529 36 q 525 18 516 9 q 507 0 488 0 l 383 0 q 364 0 356 9 q 348 18 352 36 z m 331 583 q 331 626 306 644 q 280 663 221 663 q 163 663 136 644 q 110 626 110 583 l 110 437 q 110 394 136 376 q 163 358 221 358 q 280 358 306 376 q 331 394 331 437 z m 221 368 q 170 368 145 383 q 120 398 120 437 l 120 583 q 120 622 145 638 q 170 653 221 653 q 272 653 296 638 q 321 622 321 583 l 321 437 q 321 398 296 383 q 272 368 221 368 z m 459 90 l 592 630 l 582 630 l 449 90 z m 187 447 q 187 440 193 434 q 199 429 221 429 q 242 429 248 434 q 254 440 254 447 l 254 575 q 254 581 248 586 q 242 592 221 592 q 199 592 193 586 q 187 581 187 575 z m 996 113 q 996 87 988 64 q 981 42 961 26 q 941 11 906 2 q 872 -6 819 -6 q 712 -6 676 27 q 640 60 640 113 l 640 303 q 640 356 676 389 q 712 422 819 422 q 872 422 906 414 q 941 405 961 390 q 981 374 988 352 q 996 329 996 303 z m 931 280 q 931 323 906 342 q 880 360 821 360 q 763 360 736 342 q 710 323 710 280 l 710 134 q 710 91 736 73 q 763 55 821 55 q 880 55 906 73 q 931 91 931 134 z m 821 65 q 770 65 745 80 q 720 95 720 134 l 720 280 q 720 319 745 334 q 770 350 821 350 q 872 350 896 334 q 921 319 921 280 l 921 134 q 921 95 896 80 q 872 65 821 65 z m 785 144 q 785 137 791 132 q 797 126 819 126 q 840 126 846 132 q 852 137 852 144 l 852 272 q 852 278 846 284 q 840 289 819 289 q 797 289 791 284 q 785 278 785 272 z"},"m":{"x_min":0,"x_max":849,"ha":849,"o":""},"#":{"x_min":0,"x_max":750,"ha":750,"o":"m 534 495 l 496 230 l 217 230 l 255 495 z m 425 314 l 439 411 l 326 411 l 312 314 z m 187 90 l 197 90 l 216 220 l 495 220 l 476 90 l 486 90 l 505 220 l 589 220 l 589 230 l 506 230 l 544 495 l 625 495 l 625 505 l 545 505 l 563 630 l 553 630 l 535 505 l 256 505 l 274 630 l 264 630 l 246 505 l 161 505 l 161 495 l 245 495 l 207 230 l 125 230 l 125 220 l 206 220 z m 272 36 q 270 17 262 8 q 255 0 236 0 l 131 0 q 112 0 102 8 q 93 17 95 36 l 109 135 l 71 135 q 52 135 44 144 q 35 152 35 171 l 35 278 q 35 297 44 306 q 52 314 71 314 l 135 314 l 149 411 l 107 411 q 88 411 80 420 q 71 428 71 447 l 71 554 q 71 573 80 582 q 88 590 107 590 l 175 590 l 188 684 q 190 703 198 712 q 205 720 224 720 l 329 720 q 348 720 358 712 q 367 703 365 684 l 352 590 l 465 590 l 478 684 q 480 703 488 712 q 495 720 514 720 l 619 720 q 638 720 648 712 q 657 703 655 684 l 642 590 l 679 590 q 698 590 706 582 q 715 573 715 554 l 715 447 q 715 428 706 420 q 698 411 679 411 l 616 411 l 602 314 l 643 314 q 662 314 670 306 q 679 297 679 278 l 679 171 q 679 152 670 144 q 662 135 643 135 l 576 135 l 562 36 q 560 17 552 8 q 545 0 526 0 l 421 0 q 402 0 392 8 q 383 17 385 36 l 399 135 l 286 135 z"},",":{"x_min":0,"x_max":384,"ha":384,"o":"m 181 -100 l 104 -100 q 85 -100 76 -92 q 68 -83 68 -64 l 68 -24 q 68 -5 76 4 q 85 12 104 12 l 173 12 q 186 12 193 20 q 200 27 200 40 l 200 55 l 91 55 q 72 55 64 64 q 55 72 55 91 l 55 239 q 55 258 64 266 q 72 275 91 275 l 293 275 q 312 275 320 266 q 329 258 329 239 l 329 51 q 329 -25 288 -62 q 248 -100 181 -100 z m 259 170 l 125 170 l 125 160 l 249 160 l 249 51 q 249 11 228 -10 q 207 -30 171 -30 l 125 -30 l 125 -40 l 171 -40 q 211 -40 235 -18 q 259 5 259 51 z"},"n":{"x_min":0,"x_max":753,"ha":753,"o":""},"h":{"x_min":0,"x_max":759,"ha":759,"o":""},"z":{"x_min":0,"x_max":660,"ha":660,"o":""},"B":{"x_min":0,"x_max":725,"ha":725,"o":"m 489 0 l 105 0 q 86 0 78 8 q 69 17 69 36 l 69 684 q 69 703 78 712 q 86 720 105 720 l 424 720 q 522 720 569 682 q 616 645 616 567 l 616 519 q 616 477 602 450 q 587 424 557 411 q 621 405 652 367 q 683 329 683 256 l 683 164 q 683 80 636 40 q 588 0 489 0 z m 180 90 l 449 90 q 491 90 517 98 q 543 105 556 118 q 570 131 575 150 q 580 168 580 190 l 580 254 q 580 279 576 300 q 571 321 557 336 q 543 352 517 360 q 491 369 450 369 q 493 380 504 405 q 514 430 514 460 l 514 524 q 514 546 509 565 q 504 584 490 598 q 476 613 450 622 q 424 630 383 630 l 180 630 z m 383 620 q 458 620 481 592 q 504 564 504 524 l 504 460 q 504 442 500 426 q 497 409 484 396 q 472 384 448 376 q 424 369 383 369 l 190 369 l 190 620 z m 294 550 l 294 442 l 379 442 q 398 442 408 452 q 417 462 417 482 l 417 510 q 417 530 408 540 q 398 550 379 550 z m 450 359 q 525 359 548 329 q 570 299 570 254 l 570 190 q 570 149 547 124 q 524 100 449 100 l 190 100 l 190 359 z m 294 288 l 294 170 l 424 170 q 443 170 452 180 q 462 190 462 210 l 462 249 q 462 269 452 278 q 443 288 424 288 z"},"K":{"x_min":0,"x_max":746,"ha":746,"o":"m 188 90 l 188 354 l 457 354 q 512 354 540 334 q 568 314 568 266 l 568 90 l 578 90 l 578 266 q 578 318 548 341 q 518 364 457 364 l 416 364 l 531 630 l 520 630 l 405 364 l 188 364 l 188 630 l 178 630 l 178 90 z m 260 0 l 105 0 q 86 0 78 8 q 69 17 69 36 l 69 684 q 69 703 78 712 q 86 720 105 720 l 260 720 q 279 720 288 712 q 296 703 296 684 l 296 454 l 336 454 l 439 687 q 446 705 458 712 q 470 720 489 720 l 643 720 q 660 720 666 712 q 672 703 665 687 l 563 454 q 619 451 652 414 q 686 378 686 318 l 686 36 q 686 17 678 8 q 669 0 650 0 l 496 0 q 477 0 468 8 q 460 17 460 36 l 460 231 q 460 247 452 256 q 444 265 428 265 l 296 265 l 296 36 q 296 17 288 8 q 279 0 260 0 z"},"R":{"x_min":0,"x_max":743,"ha":743,"o":"m 405 620 q 458 620 484 591 q 509 562 509 516 l 509 446 q 509 391 488 361 q 467 331 405 331 l 187 331 l 187 620 z m 295 540 l 295 412 l 370 412 q 396 412 405 426 q 414 439 414 459 l 414 493 q 414 513 405 526 q 396 540 370 540 z m 187 90 l 187 322 l 470 322 q 527 322 554 298 q 581 273 581 224 l 581 90 l 591 90 l 591 224 q 591 276 561 304 q 531 331 470 331 l 459 331 q 495 342 507 372 q 519 401 519 447 l 519 516 q 519 565 491 598 q 463 630 405 630 l 177 630 l 177 90 z m 259 0 l 105 0 q 86 0 78 8 q 69 17 69 36 l 69 684 q 69 703 78 712 q 86 720 105 720 l 438 720 q 550 720 592 674 q 635 627 635 553 l 635 507 q 635 465 622 436 q 610 406 579 393 q 633 387 666 349 q 700 311 700 248 l 700 36 q 700 17 692 8 q 683 0 664 0 l 509 0 q 490 0 482 8 q 473 17 473 36 l 473 189 q 473 211 464 222 q 456 232 435 232 l 295 232 l 295 36 q 295 17 286 8 q 278 0 259 0 z"},"T":{"x_min":0,"x_max":656,"ha":656,"o":"m 409 0 l 247 0 q 228 0 220 8 q 211 17 211 36 l 211 527 l 64 527 q 45 527 36 536 q 28 544 28 563 l 28 684 q 28 703 36 712 q 45 720 64 720 l 592 720 q 611 720 620 712 q 628 703 628 684 l 628 563 q 628 544 620 536 q 611 527 592 527 l 445 527 l 445 36 q 445 17 436 8 q 428 0 409 0 z m 323 90 l 333 90 l 333 620 l 538 620 l 538 630 l 118 630 l 118 620 l 323 620 z"},"P":{"x_min":0,"x_max":682,"ha":682,"o":"m 260 0 l 105 0 q 86 0 78 8 q 69 17 69 36 l 69 684 q 69 703 78 712 q 86 720 105 720 l 411 720 q 547 720 597 666 q 647 612 647 525 l 647 397 q 647 310 597 256 q 547 202 411 202 l 296 202 l 296 36 q 296 17 288 8 q 279 0 260 0 z m 397 287 q 444 287 474 297 q 503 307 519 324 q 535 342 541 366 q 547 391 547 420 l 547 494 q 547 523 541 548 q 535 573 519 591 q 503 609 474 620 q 444 630 397 630 l 181 630 l 181 90 l 191 90 l 191 287 z m 191 297 l 191 620 l 397 620 q 441 620 468 610 q 496 601 511 584 q 526 567 532 544 q 537 521 537 494 l 537 420 q 537 393 532 370 q 526 348 511 332 q 496 315 468 306 q 441 297 397 297 z m 294 533 l 294 382 l 384 382 q 413 382 422 397 q 431 412 431 431 l 431 484 q 431 503 422 518 q 413 533 384 533 z"},"|":{"x_min":0,"x_max":347,"ha":347,"o":"m 282 774 l 282 -54 q 282 -73 274 -82 q 265 -90 246 -90 l 101 -90 q 82 -90 74 -82 q 65 -73 65 -54 l 65 774 q 65 793 74 802 q 82 810 101 810 l 246 810 q 265 810 274 802 q 282 793 282 774 z m 169 720 l 169 0 l 179 0 l 179 720 z"},"t":{"x_min":0,"x_max":656,"ha":656,"o":""},"M":{"x_min":0,"x_max":849,"ha":849,"o":"m 421 385 q 403 385 395 393 q 387 401 370 427 l 248 613 q 242 623 234 626 q 226 630 218 630 l 201 630 q 188 630 182 622 q 175 615 175 599 l 175 90 l 185 90 l 185 599 q 185 607 188 614 q 191 620 201 620 l 216 620 q 223 620 228 618 q 234 616 240 606 l 362 422 q 380 395 390 385 q 399 375 421 375 q 443 375 452 385 q 462 395 480 422 l 602 606 q 608 616 613 618 q 618 620 625 620 l 640 620 q 650 620 654 614 q 657 607 657 599 l 657 90 l 667 90 l 667 599 q 667 615 660 622 q 654 630 640 630 l 623 630 q 615 630 608 626 q 600 623 594 613 l 472 427 q 455 401 447 393 q 439 385 421 385 z m 254 0 l 105 0 q 86 0 78 8 q 69 17 69 36 l 69 684 q 69 703 78 712 q 86 720 105 720 l 266 720 q 282 720 292 713 q 303 706 312 690 l 402 527 q 407 518 410 514 q 414 510 420 510 l 429 510 q 435 510 438 514 q 442 518 447 527 l 536 690 q 545 706 556 713 q 566 720 582 720 l 744 720 q 763 720 772 712 q 780 703 780 684 l 780 36 q 780 17 772 8 q 763 0 744 0 l 590 0 q 571 0 562 8 q 554 17 554 36 l 554 388 l 495 279 q 486 262 474 254 q 461 247 442 247 l 402 247 q 383 247 370 254 q 358 262 349 279 l 290 388 l 290 36 q 290 17 282 8 q 273 0 254 0 z"},"g":{"x_min":0,"x_max":708,"ha":708,"o":""},"j":{"x_min":0,"x_max":688,"ha":688,"o":""},"i":{"x_min":0,"x_max":605,"ha":605,"o":""},"y":{"x_min":0,"x_max":705,"ha":705,"o":""},"@":{"x_min":0,"x_max":867,"ha":867,"o":"m 624 -91 l 434 -91 q 322 -91 249 -73 q 176 -55 134 -23 q 93 9 76 54 q 60 100 60 154 l 60 564 q 60 619 76 664 q 93 710 134 742 q 176 775 249 793 q 322 811 434 811 q 546 811 619 793 q 692 775 734 742 q 775 710 791 664 q 807 619 807 564 l 807 304 q 807 258 798 220 q 790 183 766 156 q 741 130 697 115 q 653 100 583 100 l 394 100 q 293 100 256 140 q 218 181 218 246 l 218 439 q 218 505 256 546 q 293 586 394 586 l 619 586 q 632 586 638 580 q 645 573 645 560 l 645 211 q 684 211 696 236 q 707 262 707 302 l 707 568 q 707 600 695 628 q 683 655 653 674 q 623 693 570 704 q 516 715 434 715 q 352 715 298 704 q 245 693 214 674 q 184 655 172 628 q 160 600 160 568 l 160 150 q 160 118 172 91 q 184 64 214 45 q 245 26 298 16 q 352 5 434 5 l 624 5 q 643 5 650 -2 q 658 -10 658 -29 l 658 -57 q 658 -76 650 -84 q 643 -91 624 -91 z m 434 -50 l 608 -50 l 608 -40 l 434 -40 q 330 -40 266 -24 q 203 -9 170 18 q 136 44 126 78 q 115 113 115 150 l 115 568 q 115 606 126 640 q 137 675 170 701 q 204 727 267 742 q 330 758 434 758 q 538 758 601 742 q 664 727 698 701 q 731 675 742 640 q 752 606 752 568 l 752 302 q 752 233 728 202 q 703 170 645 170 l 569 170 l 569 527 l 425 527 q 376 527 350 518 q 323 509 310 494 q 298 480 296 461 q 294 442 294 422 l 294 261 q 294 207 314 184 q 334 160 383 160 l 645 160 q 708 160 735 194 q 762 227 762 302 l 762 568 q 762 607 752 644 q 741 680 708 708 q 674 735 608 752 q 543 768 434 768 q 325 768 260 752 q 194 735 160 708 q 126 680 116 644 q 105 607 105 568 l 105 150 q 105 111 116 75 q 126 39 160 11 q 194 -17 260 -34 q 325 -50 434 -50 z m 383 170 q 339 170 322 192 q 304 213 304 261 l 304 422 q 304 440 306 458 q 309 475 320 488 q 332 501 356 509 q 381 517 425 517 l 559 517 l 559 170 z m 415 237 l 482 237 l 482 458 l 425 458 q 397 458 389 446 q 381 435 381 422 l 381 271 q 381 256 388 246 q 395 237 415 237 z"},".":{"x_min":0,"x_max":384,"ha":384,"o":"m 293 0 l 91 0 q 72 0 64 8 q 55 17 55 36 l 55 239 q 55 258 64 266 q 72 275 91 275 l 293 275 q 312 275 320 266 q 329 258 329 239 l 329 36 q 329 17 320 8 q 312 0 293 0 z m 187 90 l 197 90 l 197 185 l 187 185 z"},"p":{"x_min":0,"x_max":682,"ha":682,"o":""},"X":{"x_min":0,"x_max":737,"ha":737,"o":"m 177 135 q 177 156 179 176 q 181 195 191 208 l 309 370 l 429 370 l 546 208 q 556 194 558 175 q 560 156 560 135 l 560 90 l 570 90 l 570 135 q 570 157 568 176 q 566 196 555 212 l 437 374 l 555 538 q 566 554 568 574 q 570 593 570 615 l 570 630 l 560 630 l 560 615 q 560 594 558 575 q 556 556 546 542 l 430 380 l 311 380 l 191 542 q 181 556 179 575 q 177 594 177 615 l 177 630 l 167 630 l 167 615 q 167 593 169 574 q 171 554 182 538 l 302 376 l 182 212 q 170 196 168 176 q 167 157 167 135 l 167 90 l 177 90 z m 284 36 q 284 17 276 8 q 267 0 248 0 l 96 0 q 77 0 68 8 q 60 17 60 36 l 60 143 q 60 189 68 212 q 76 235 98 266 l 179 375 l 98 484 q 75 515 68 538 q 60 561 60 607 l 60 684 q 60 703 68 712 q 77 720 96 720 l 250 720 q 269 720 278 712 q 286 703 286 684 l 286 615 q 286 605 287 594 q 288 583 295 573 l 339 510 q 344 502 350 498 q 355 493 363 493 l 375 493 q 383 493 388 498 q 393 502 399 510 l 444 573 q 451 583 452 594 q 453 605 453 615 l 453 684 q 453 703 462 712 q 470 720 489 720 l 641 720 q 660 720 668 712 q 677 703 677 684 l 677 607 q 677 561 669 538 q 661 515 639 484 l 558 374 l 639 266 q 662 235 670 212 q 677 189 677 143 l 677 36 q 677 17 668 8 q 660 0 641 0 l 489 0 q 470 0 462 8 q 453 17 453 36 l 453 135 q 453 145 452 156 q 451 167 444 177 l 400 240 q 394 249 389 253 q 384 257 376 257 l 362 257 q 354 257 349 253 q 344 249 338 240 l 293 177 q 286 167 285 156 q 284 145 284 135 z"},"*":{"x_min":0,"x_max":718,"ha":718,"o":"m 289 165 q 277 144 268 142 q 258 139 236 153 l 142 221 q 121 236 120 246 q 119 256 136 275 l 245 390 l 93 415 q 68 419 62 428 q 57 436 65 461 l 101 572 q 108 597 118 601 q 128 605 150 594 l 292 530 l 269 679 q 265 704 272 712 q 280 720 305 720 l 422 720 q 447 720 454 712 q 460 704 456 679 l 436 530 l 573 594 q 595 605 604 601 q 614 597 622 572 l 659 461 q 667 436 662 428 q 656 419 631 415 l 478 390 l 588 275 q 605 256 604 246 q 603 236 582 221 l 488 153 q 466 139 457 142 q 448 144 436 165 l 362 306 z m 473 268 l 481 274 l 375 426 l 547 482 l 543 492 l 369 435 l 369 630 l 359 630 l 359 435 l 185 492 l 181 482 l 353 426 l 247 274 l 255 268 l 364 423 z"},"Y":{"x_min":0,"x_max":705,"ha":705,"o":"m 434 0 l 272 0 q 253 0 244 8 q 236 17 236 36 l 236 164 l 83 369 q 60 400 52 423 q 45 446 45 492 l 45 684 q 45 703 54 712 q 62 720 81 720 l 235 720 q 254 720 262 712 q 271 703 271 684 l 271 520 q 271 510 272 499 q 273 488 280 478 l 326 406 q 331 397 336 393 q 342 389 350 389 l 360 389 q 368 389 374 393 q 379 397 384 406 l 430 478 q 437 488 438 499 q 439 510 439 520 l 439 684 q 439 703 448 712 q 456 720 475 720 l 624 720 q 643 720 652 712 q 660 703 660 684 l 660 492 q 660 446 652 423 q 644 400 622 369 l 470 163 l 470 36 q 470 17 462 8 q 453 0 434 0 z m 365 261 q 388 261 406 271 q 423 281 439 303 l 539 438 q 551 454 552 474 q 554 493 554 515 l 554 630 l 544 630 l 544 515 q 544 494 542 474 q 540 455 530 442 l 430 307 q 415 288 400 280 q 384 271 365 271 l 338 271 q 321 271 304 279 q 287 287 274 307 l 177 442 q 167 457 165 476 q 163 494 163 515 l 163 630 l 153 630 l 153 515 q 153 493 155 473 q 157 453 168 438 l 265 303 q 281 281 298 271 q 316 261 338 261 l 348 261 l 348 90 l 358 90 l 358 261 z"},"c":{"x_min":0,"x_max":628,"ha":628,"o":""},"!":{"x_min":0,"x_max":424,"ha":424,"o":"m 290 262 l 135 262 q 116 262 108 270 q 99 279 98 298 l 83 684 q 82 703 90 712 q 98 720 117 720 l 308 720 q 327 720 335 712 q 343 703 342 684 l 328 298 q 327 279 318 270 q 309 262 290 262 z m 208 630 l 208 352 l 218 352 l 218 630 z m 305 0 l 121 0 q 102 0 94 8 q 85 17 85 36 l 85 167 q 85 186 94 194 q 102 203 121 203 l 305 203 q 324 203 332 194 q 341 186 341 167 l 341 36 q 341 17 332 8 q 324 0 305 0 z m 218 80 l 218 123 l 208 123 l 208 80 z"},"/":{"x_min":0,"x_max":347,"ha":347,"o":"m 7 -54 l 127 774 q 129 793 136 802 q 144 810 163 810 l 308 810 q 327 810 336 802 q 346 793 344 774 l 224 -54 q 222 -73 214 -82 q 207 -90 188 -90 l 43 -90 q 24 -90 14 -82 q 5 -73 7 -54 z m 223 720 l 119 0 l 129 0 l 233 720 z"},"[":{"x_min":0,"x_max":429,"ha":429,"o":"m 276 607 l 276 111 l 348 111 q 367 111 376 102 q 384 94 384 75 l 384 -44 q 384 -63 376 -72 q 367 -80 348 -80 l 84 -80 q 65 -80 56 -72 q 48 -63 48 -44 l 48 764 q 48 783 56 792 q 65 800 84 800 l 348 800 q 367 800 376 792 q 384 783 384 764 l 384 643 q 384 624 376 616 q 367 607 348 607 z m 157 708 l 157 11 l 294 11 l 294 21 l 167 21 l 167 698 l 294 698 l 294 708 z"},"6":{"x_min":0,"x_max":693,"ha":693,"o":"m 358 -15 q 266 -15 208 0 q 149 14 116 40 q 83 67 70 104 q 58 141 58 187 l 58 515 q 58 606 110 663 q 163 720 304 720 l 534 720 q 553 720 562 712 q 570 703 570 684 l 570 566 q 570 547 562 538 q 553 530 534 530 l 347 530 q 310 530 297 518 q 284 507 284 470 l 284 448 q 308 455 340 459 q 371 463 411 463 q 546 463 596 418 q 646 372 646 283 l 646 187 q 646 141 634 104 q 621 67 588 40 q 556 14 500 0 q 444 -15 358 -15 z m 361 71 q 398 71 430 75 q 463 79 487 91 q 511 103 524 126 q 538 149 538 187 l 538 275 q 538 313 524 335 q 511 357 488 368 q 464 378 432 380 q 401 383 364 383 q 298 383 248 375 q 198 367 180 327 l 180 515 q 180 577 214 598 q 247 620 304 620 l 480 620 l 480 630 l 304 630 q 241 630 206 606 q 170 581 170 515 l 170 187 q 170 149 184 126 q 199 102 225 90 q 251 78 286 74 q 321 71 361 71 z m 361 81 q 324 81 291 84 q 258 87 234 98 q 209 108 194 130 q 180 151 180 187 l 180 278 q 180 314 196 334 q 213 353 239 362 q 265 371 298 372 q 331 373 364 373 q 397 373 427 372 q 457 370 479 360 q 501 351 514 331 q 528 311 528 275 l 528 187 q 528 152 515 130 q 502 109 479 98 q 456 87 426 84 q 395 81 361 81 z m 284 262 l 284 203 q 284 187 296 176 q 308 166 351 166 q 396 166 408 176 q 420 187 420 203 l 420 262 q 420 277 408 288 q 396 298 351 298 q 308 298 296 288 q 284 277 284 262 z"},"r":{"x_min":0,"x_max":743,"ha":743,"o":""},"2":{"x_min":0,"x_max":639,"ha":639,"o":"m 552 0 l 76 0 q 57 0 48 8 q 40 17 40 36 l 40 208 q 40 266 52 304 q 63 341 84 365 q 105 389 134 403 q 163 417 197 427 l 331 469 q 347 473 352 481 q 358 489 358 505 q 358 520 352 526 q 346 531 331 531 l 114 531 q 95 531 86 540 q 78 548 78 567 l 78 684 q 78 703 86 712 q 95 720 114 720 l 409 720 q 494 720 540 678 q 585 635 585 554 l 585 460 q 585 385 543 345 q 501 305 429 283 l 293 240 q 278 236 272 231 q 267 226 267 210 l 267 189 l 552 189 q 571 189 580 180 q 588 172 588 153 l 588 36 q 588 17 580 8 q 571 0 552 0 z m 204 328 q 173 318 161 300 q 149 283 149 246 l 149 90 l 498 90 l 498 100 l 158 100 l 158 246 q 158 280 169 294 q 180 309 208 319 l 441 396 q 457 403 466 416 q 476 429 476 452 l 476 543 q 476 593 448 612 q 420 630 369 630 l 168 630 l 168 620 l 369 620 q 414 620 440 604 q 466 589 466 543 l 466 452 q 466 433 458 422 q 450 410 437 405 z"},"{":{"x_min":0,"x_max":455,"ha":455,"o":"m 312 161 q 312 135 320 123 q 329 111 353 111 l 374 111 q 393 111 402 102 q 410 94 410 75 l 410 -44 q 410 -63 402 -72 q 393 -80 374 -80 l 330 -80 q 189 -80 136 -23 q 84 34 84 124 l 84 254 q 52 264 36 284 q 20 305 20 341 l 20 376 q 20 412 36 432 q 52 452 84 462 l 84 595 q 84 686 136 743 q 189 800 330 800 l 374 800 q 393 800 402 792 q 410 783 410 764 l 410 643 q 410 624 402 616 q 393 607 374 607 l 353 607 q 329 607 320 595 q 312 583 312 557 l 312 440 q 312 410 302 396 q 293 382 267 378 l 234 372 q 227 371 224 368 q 221 365 221 358 q 221 351 224 348 q 227 345 234 344 l 267 338 q 293 334 302 320 q 312 306 312 276 z m 320 11 l 320 21 q 261 21 232 46 q 203 72 203 124 l 203 283 q 169 287 154 302 q 139 316 139 344 l 139 372 q 139 400 154 414 q 168 429 203 433 l 203 595 q 203 654 232 676 q 260 698 320 698 l 320 708 q 254 708 224 683 q 193 658 193 595 l 193 441 q 163 437 146 420 q 129 404 129 372 l 129 344 q 129 313 146 296 q 163 279 193 275 l 193 124 q 193 67 224 39 q 255 11 320 11 z"},"9":{"x_min":0,"x_max":693,"ha":693,"o":"m 389 0 l 159 0 q 140 0 132 8 q 123 17 123 36 l 123 154 q 123 173 132 182 q 140 190 159 190 l 346 190 q 383 190 396 202 q 409 213 409 250 l 409 272 q 385 265 354 261 q 322 257 282 257 q 147 257 97 302 q 47 348 47 437 l 47 533 q 47 579 60 616 q 72 653 104 680 q 137 706 193 720 q 249 735 335 735 q 427 735 486 720 q 544 706 577 680 q 610 653 622 616 q 635 579 635 533 l 635 205 q 635 114 582 57 q 530 0 389 0 z m 213 90 l 389 90 q 452 90 488 114 q 523 139 523 205 l 523 533 q 523 571 508 594 q 494 618 468 630 q 442 642 407 646 q 372 649 332 649 q 295 649 262 645 q 230 641 206 629 q 182 617 168 594 q 155 571 155 533 l 155 445 q 155 407 168 385 q 182 363 206 352 q 229 342 260 340 q 292 337 329 337 q 395 337 445 345 q 495 353 513 393 l 513 205 q 513 143 480 122 q 446 100 389 100 l 213 100 z m 329 347 q 296 347 266 348 q 236 350 214 360 q 192 369 178 389 q 165 409 165 445 l 165 533 q 165 568 178 590 q 191 611 214 622 q 237 633 268 636 q 298 639 332 639 q 369 639 402 636 q 435 633 460 622 q 484 612 498 590 q 513 569 513 533 l 513 442 q 513 406 496 386 q 480 367 454 358 q 428 349 395 348 q 362 347 329 347 z m 409 458 l 409 517 q 409 533 397 544 q 385 554 342 554 q 297 554 285 544 q 273 533 273 517 l 273 458 q 273 443 285 432 q 297 422 342 422 q 385 422 397 432 q 409 443 409 458 z"}," ":{"x_min":0,"x_max":225,"ha":225,"o":""},"I":{"x_min":0,"x_max":605,"ha":605,"o":"m 89 0 q 70 0 62 8 q 53 17 53 36 l 53 155 q 53 174 62 182 q 70 191 89 191 l 188 191 l 188 527 l 89 527 q 70 527 62 536 q 53 544 53 563 l 53 684 q 53 703 62 712 q 70 720 89 720 l 515 720 q 534 720 542 712 q 551 703 551 684 l 551 563 q 551 544 542 536 q 534 527 515 527 l 418 527 l 418 191 l 515 191 q 534 191 542 182 q 551 174 551 155 l 551 36 q 551 17 542 8 q 534 0 515 0 z m 461 90 l 461 100 l 308 100 l 308 620 l 461 620 l 461 630 l 143 630 l 143 620 l 298 620 l 298 100 l 143 100 l 143 90 z"},"H":{"x_min":0,"x_max":759,"ha":759,"o":"m 177 90 l 187 90 l 187 355 l 571 355 l 571 90 l 581 90 l 581 630 l 571 630 l 571 365 l 187 365 l 187 630 l 177 630 z m 260 0 l 105 0 q 86 0 78 8 q 69 17 69 36 l 69 684 q 69 703 78 712 q 86 720 105 720 l 260 720 q 279 720 288 712 q 296 703 296 684 l 296 467 l 463 467 l 463 684 q 463 703 472 712 q 480 720 499 720 l 654 720 q 673 720 682 712 q 690 703 690 684 l 690 36 q 690 17 682 8 q 673 0 654 0 l 499 0 q 480 0 472 8 q 463 17 463 36 l 463 258 l 296 258 l 296 36 q 296 17 288 8 q 279 0 260 0 z"},"4":{"x_min":0,"x_max":709,"ha":709,"o":"m 414 167 l 245 167 q 148 167 106 208 q 63 248 63 333 l 63 684 q 63 703 72 712 q 80 720 99 720 l 254 720 q 273 720 282 712 q 290 703 290 684 l 290 410 q 290 394 298 385 q 307 376 321 376 l 414 376 l 414 684 q 414 703 422 712 q 431 720 450 720 l 604 720 q 623 720 632 712 q 640 703 640 684 l 640 36 q 640 17 632 8 q 623 0 604 0 l 450 0 q 431 0 422 8 q 414 17 414 36 z m 522 90 l 532 90 l 532 630 l 522 630 l 522 277 l 283 277 q 232 277 207 300 q 182 324 182 372 l 182 630 l 172 630 l 172 372 q 172 320 199 294 q 226 267 283 267 l 522 267 z"},"~":{"x_min":0,"x_max":734,"ha":734,"o":"m 367 277 l 327 282 q 287 288 260 290 q 233 292 212 290 q 190 288 170 283 q 149 278 121 269 q 96 262 83 270 q 70 277 70 294 l 70 400 q 70 426 81 437 q 92 448 107 453 q 145 466 171 472 q 197 478 221 478 q 245 479 272 475 q 300 471 343 465 l 367 462 l 398 458 q 445 451 472 448 q 500 446 520 448 q 541 449 561 454 q 581 460 612 469 q 638 476 651 468 q 664 460 664 438 l 664 339 q 664 313 652 302 q 640 291 627 286 q 589 273 562 267 q 536 261 512 260 q 488 260 460 264 q 432 268 390 274 z m 160 368 q 178 373 194 376 q 211 378 230 378 q 248 379 271 377 q 294 375 326 370 l 366 365 l 389 362 q 423 357 448 354 q 472 350 492 348 q 513 347 532 349 q 551 351 574 357 l 574 368 q 551 362 532 360 q 513 357 493 358 q 473 359 449 363 q 425 367 391 372 l 368 375 l 328 380 q 263 390 230 390 q 196 389 160 379 z"},"D":{"x_min":0,"x_max":746,"ha":746,"o":"m 442 0 l 105 0 q 86 0 78 8 q 69 17 69 36 l 69 684 q 69 703 78 712 q 86 720 105 720 l 442 720 q 567 720 628 670 q 688 620 688 516 l 688 204 q 688 100 628 50 q 567 0 442 0 z m 178 90 l 420 90 q 471 90 503 100 q 535 111 552 129 q 569 147 574 172 q 580 197 580 226 l 580 491 q 580 520 574 546 q 568 571 551 590 q 534 608 502 619 q 471 630 420 630 l 178 630 z m 420 620 q 467 620 496 610 q 526 600 542 583 q 558 566 564 542 q 570 518 570 491 l 570 226 q 570 199 564 176 q 559 152 543 136 q 527 119 498 110 q 468 100 420 100 l 188 100 l 188 620 z m 296 529 l 296 189 l 415 189 q 439 189 450 201 q 462 213 462 238 l 462 481 q 462 506 450 518 q 439 529 415 529 z"},"^":{"x_min":0,"x_max":714,"ha":714,"o":"m 43 208 l 151 589 q 169 651 200 684 q 232 717 306 717 l 379 717 q 453 717 484 684 q 515 651 534 589 l 642 208 q 646 189 638 180 q 631 172 612 172 l 480 171 q 461 170 451 178 q 441 187 439 206 l 361 495 q 359 505 356 509 q 352 513 343 512 q 333 513 330 509 q 326 505 324 495 l 246 206 q 244 187 234 178 q 224 170 205 171 l 73 172 q 54 172 46 180 q 39 189 43 208 z m 533 261 l 446 564 q 439 590 426 608 q 414 626 379 626 l 306 626 q 271 626 258 608 q 246 591 239 563 l 153 261 l 164 261 l 249 561 q 256 584 266 600 q 275 616 306 616 l 379 616 q 410 616 420 600 q 430 584 436 562 l 522 261 z"},"0":{"x_min":0,"x_max":727,"ha":727,"o":"m 669 189 q 669 143 656 106 q 643 68 609 42 q 575 15 516 0 q 456 -15 364 -15 q 272 -15 212 0 q 153 15 119 42 q 85 68 72 106 q 58 143 58 189 l 58 530 q 58 576 72 614 q 85 651 119 678 q 153 705 212 720 q 272 735 364 735 q 456 735 516 720 q 575 705 609 678 q 643 651 656 614 q 669 576 669 530 z m 166 212 q 166 182 175 157 q 184 132 206 114 q 228 97 266 87 q 305 77 363 77 q 479 77 520 114 q 562 152 562 212 l 562 507 q 562 566 520 604 q 479 642 363 642 q 305 642 266 632 q 228 622 206 604 q 184 587 175 562 q 166 537 166 507 z m 363 632 q 470 632 511 598 q 552 563 552 507 l 552 212 q 552 155 511 121 q 470 87 363 87 q 256 87 216 121 q 176 155 176 212 l 176 507 q 176 564 216 598 q 256 632 363 632 z m 284 225 q 284 205 298 192 q 313 178 364 178 q 415 178 430 192 q 444 205 444 225 l 444 494 q 444 513 430 526 q 415 540 364 540 q 313 540 298 526 q 284 513 284 494 z"},"F":{"x_min":0,"x_max":618,"ha":618,"o":"m 260 0 l 105 0 q 86 0 78 8 q 69 17 69 36 l 69 684 q 69 703 78 712 q 86 720 105 720 l 551 720 q 570 720 578 712 q 587 703 587 684 l 587 565 q 587 546 578 538 q 570 529 551 529 l 296 529 l 296 425 l 470 425 q 489 425 498 416 q 506 408 506 389 l 506 269 q 506 250 498 242 q 489 233 470 233 l 296 233 l 296 36 q 296 17 288 8 q 279 0 260 0 z m 178 90 l 188 90 l 188 324 l 416 324 l 416 334 l 188 334 l 188 620 l 497 620 l 497 630 l 178 630 z"},"`":{"x_min":0,"x_max":500,"ha":500,"o":"m 425 753 l 76 796 q 57 798 48 806 q 40 813 40 832 l 40 928 q 40 945 48 954 q 57 963 74 961 l 423 918 q 442 916 450 908 q 459 901 459 882 l 459 786 q 459 769 450 760 q 442 751 425 753 z m 130 867 l 369 837 l 369 847 l 130 877 z"},"k":{"x_min":0,"x_max":746,"ha":746,"o":""},"u":{"x_min":0,"x_max":746,"ha":746,"o":""},"]":{"x_min":0,"x_max":429,"ha":429,"o":"m 153 111 l 153 607 l 81 607 q 62 607 54 616 q 45 624 45 643 l 45 764 q 45 783 54 792 q 62 800 81 800 l 345 800 q 364 800 372 792 q 381 783 381 764 l 381 -44 q 381 -63 372 -72 q 364 -80 345 -80 l 81 -80 q 62 -80 54 -72 q 45 -63 45 -44 l 45 75 q 45 94 54 102 q 62 111 81 111 z m 272 708 l 135 708 l 135 698 l 262 698 l 262 21 l 135 21 l 135 11 l 272 11 z"},"U":{"x_min":0,"x_max":746,"ha":746,"o":"m 682 189 q 682 143 668 106 q 655 68 620 42 q 586 15 526 0 q 466 -15 373 -15 q 280 -15 220 0 q 160 15 126 42 q 91 68 78 106 q 64 143 64 189 l 64 684 q 64 703 72 712 q 81 720 100 720 l 257 720 q 276 720 284 712 q 293 703 293 684 l 293 228 q 293 208 308 194 q 323 181 375 181 q 428 181 443 194 q 458 208 458 228 l 458 684 q 458 703 466 712 q 475 720 494 720 l 646 720 q 665 720 674 712 q 682 703 682 684 z m 174 630 l 174 213 q 174 153 216 116 q 257 78 374 78 q 491 78 533 116 q 575 153 575 213 l 575 630 l 565 630 l 565 213 q 565 157 525 122 q 485 88 374 88 q 263 88 224 122 q 184 157 184 213 l 184 630 z"},"o":{"x_min":0,"x_max":737,"ha":737,"o":""},"N":{"x_min":0,"x_max":753,"ha":753,"o":"m 201 622 q 196 627 193 629 q 190 631 186 631 q 182 631 178 628 q 174 625 174 619 l 174 90 l 184 90 l 184 617 q 184 618 184 619 q 185 620 186 620 q 187 620 188 619 q 190 618 191 617 l 569 193 l 569 90 l 579 90 l 579 630 l 569 630 l 569 208 z m 255 0 l 105 0 q 86 0 78 8 q 69 17 69 36 l 69 684 q 69 703 78 712 q 86 720 105 720 l 209 720 q 228 720 242 714 q 255 708 268 693 l 462 471 l 462 684 q 462 703 470 712 q 479 720 498 720 l 648 720 q 667 720 676 712 q 684 703 684 684 l 684 36 q 684 17 676 8 q 667 0 648 0 l 498 0 q 479 0 470 8 q 462 17 462 36 l 462 159 l 291 366 l 291 36 q 291 17 282 8 q 274 0 255 0 z"},"+":{"x_min":0,"x_max":734,"ha":734,"o":"m 465 99 q 465 80 456 72 q 448 63 429 63 l 305 63 q 286 63 278 72 q 269 80 269 99 l 269 267 l 106 267 q 87 267 78 276 q 70 284 70 303 l 70 417 q 70 436 78 444 q 87 453 106 453 l 269 453 l 269 621 q 269 640 278 648 q 286 657 305 657 l 429 657 q 448 657 456 648 q 465 640 465 621 l 465 453 l 628 453 q 647 453 656 444 q 664 436 664 417 l 664 303 q 664 284 656 276 q 647 267 628 267 l 465 267 z m 362 153 l 372 153 l 372 355 l 574 355 l 574 365 l 372 365 l 372 567 l 362 567 l 362 365 l 160 365 l 160 355 l 362 355 z"},"G":{"x_min":0,"x_max":708,"ha":708,"o":"m 619 0 l 304 0 q 179 0 118 50 q 58 100 58 204 l 58 516 q 58 620 118 670 q 179 720 304 720 l 554 720 q 573 720 582 712 q 590 703 590 684 l 590 563 q 590 544 582 536 q 573 527 554 527 l 346 527 q 315 527 300 514 q 285 502 285 477 l 285 238 q 285 213 296 201 q 308 189 331 189 l 428 189 l 428 345 q 428 364 436 372 q 445 381 464 381 l 619 381 q 638 381 646 372 q 655 364 655 345 l 655 36 q 655 17 646 8 q 638 0 619 0 z m 347 90 l 546 90 l 546 291 l 536 291 l 536 100 l 347 100 q 246 100 212 127 q 177 154 177 219 l 177 499 q 177 565 208 592 q 239 620 327 620 l 500 620 l 500 630 l 327 630 q 231 630 199 600 q 167 570 167 499 l 167 219 q 167 184 174 160 q 182 135 202 120 q 222 104 257 97 q 292 90 347 90 z"},"q":{"x_min":0,"x_max":737,"ha":737,"o":""},"d":{"x_min":0,"x_max":746,"ha":746,"o":""},"1":{"x_min":0,"x_max":601,"ha":601,"o":"m 526 0 l 84 0 q 65 0 56 8 q 48 17 48 36 l 48 157 q 48 176 56 184 q 65 193 84 193 l 196 193 l 196 527 l 104 527 q 85 527 76 536 q 68 544 68 563 l 68 684 q 68 703 76 712 q 85 720 104 720 l 394 720 q 413 720 422 712 q 430 703 430 684 l 430 193 l 526 193 q 545 193 554 184 q 562 176 562 157 l 562 36 q 562 17 554 8 q 545 0 526 0 z m 138 85 l 472 85 l 472 95 l 318 95 l 318 630 l 158 630 l 158 620 l 308 620 l 308 95 l 138 95 z"},"5":{"x_min":0,"x_max":647,"ha":647,"o":"m 409 0 l 91 0 q 72 0 64 8 q 55 17 55 36 l 55 153 q 55 172 64 180 q 72 189 91 189 l 349 189 q 361 189 368 194 q 376 200 376 212 l 376 251 q 376 263 368 268 q 361 274 349 274 l 101 274 q 82 274 74 282 q 65 291 65 310 l 65 684 q 65 703 74 712 q 82 720 101 720 l 532 720 q 551 720 560 712 q 568 703 568 684 l 568 565 q 568 546 560 538 q 551 529 532 529 l 292 529 l 292 464 l 429 464 q 510 464 557 424 q 604 384 604 305 l 604 166 q 604 90 552 45 q 499 0 409 0 z m 145 90 l 381 90 q 443 90 469 114 q 495 137 495 188 l 495 276 q 495 327 468 350 q 442 374 390 374 l 184 374 l 184 620 l 478 620 l 478 630 l 174 630 l 174 364 l 390 364 q 436 364 460 344 q 485 323 485 276 l 485 188 q 485 142 461 121 q 437 100 381 100 l 145 100 z"}}}
